# xmcd
#
# Track frame offsets: 
#        150
#        14073
#        28131
#        40917
#        52057
#        62538
#        74249
#        87757
#        99287
#        112799
#        124226
#        135266
#        146507
#        159019
#        170700
#        181330
#        196142
#
# Disc length: 2796 seconds
#
# Revision: 0
# Processed by: cddbd v1.5.2PL0 Copyright (c) Steve Scherf et al.
# Submitted via: ExactAudioCopy v1.0b4
#
DISCID=e70aea11
DTITLE=Nappy Brown - That Man (LP)
DYEAR=1900
DGENRE=Blues
TTITLE0=That Man
TTITLE1=I Wonder (What's Wrong With Me)
TTITLE2=Is It True-Is It True
TTITLE3=Two Faced Woman (And A Lyin' Man)
TTITLE4=Open Up That Door (And Walk Right In My Heart)
TTITLE5=Little By Little
TTITLE6=Bye Bye Baby
TTITLE7=My Baby
TTITLE8=The Right Time
TTITLE9=A Long Time
TTITLE10=Down In The Alley
TTITLE11=Baby I Got News For You
TTITLE12=Baby-Cry-Cry-Cry-Baby
TTITLE13=What's Come Over You, Baby
TTITLE14=Coal Miner
TTITLE15=I've Had My Fun
TTITLE16=Didn't You Know
EXTD=
EXTT0=
EXTT1=
EXTT2=
EXTT3=
EXTT4=
EXTT5=
EXTT6=
EXTT7=
EXTT8=
EXTT9=
EXTT10=
EXTT11=
EXTT12=
EXTT13=
EXTT14=
EXTT15=
EXTT16=
PLAYORDER=
